Format                           : MPEG-PS
File size                        : 1.17 GiB
Duration                         : 4mn 45s
Overall bit rate mode            : Variable
Overall bit rate                 : 35.1 Mbps

Video
ID                               : 224 (0xE0)
Format                           : MPEG Video
Format version                   : Version 2
Format profile                   : 4:2:2@High
Format settings, BVOP            : Yes
Format settings, Matrix          : Custom
Duration                         : 4mn 45s
Bit rate mode                    : Variable
Bit rate                         : 34.0 Mbps
Maximum bit rate                 : 34.3 Mbps
Width                            : 1 920 pixels
Height                           : 1 080 pixels
Display aspect ratio             : 16:9
Frame rate                       : 29.970 fps
Color space                      : YUV
Chroma subsampling               : 4:2:2
Bit depth                        : 8 bits
Scan type                        : Interlaced
Scan order                       : Top Field First
Compression mode                 : Lossy
Bits/(Pixel*Frame)               : 0.547
Stream size                      : 1.13 GiB (97%)

Audio
ID                               : 192 (0xC0)
Format                           : MPEG Audio
Format version                   : Version 1
Format profile                   : Layer 2
Duration                         : 4mn 45s
Bit rate mode                    : Constant
Bit rate                         : 384 Kbps
Channel(s)                       : 2 channels
Sampling rate                    : 48.0 KHz
Compression mode                 : Lossy
Stream size                      : 13.1 MiB (1%)
